# xmcd
#
# Track frame offsets: 
#        150
#        15877
#        29849
#        41940
#        57857
#        75385
#
# Disc length: 1159 seconds
#
# Revision: 4
# Processed by: cddbd v1.5.2PL0 Copyright (c) Steve Scherf et al.
# Submitted via: ExactAudioCopy v0.90b4
#
DISCID=41048506
DTITLE=Taylor Swift - The Taylor Swift Holiday Collection
DYEAR=2010
DGENRE=Christian Rock
TTITLE0=Last Christmas
TTITLE1=Christmases When You Were Mine
TTITLE2=Santa Baby
TTITLE3=Silent Night
TTITLE4=Christmas Must Be Something More
TTITLE5=White Christmas
EXTD=
EXTT0=
EXTT1=
EXTT2=
EXTT3=
EXTT4=
EXTT5=
PLAYORDER=
